<svg width="59" height="59" viewBox="0 0 59 59" fill="none" xmlns="http://www.w3.org/2000/svg">
<rect x="0.5" y="0.5" width="58" height="58" fill="white"/>
<rect x="0.5" y="0.5" width="58" height="58" stroke="black"/>
<path d="M15.5128 36.1989C14.4901 36.1989 13.581 36.0237 12.7855 35.6733C11.9948 35.3229 11.3698 34.8352 10.9105 34.2102C10.4512 33.5852 10.2074 32.8632 10.179 32.044H12.8494C12.8731 32.437 13.0033 32.7803 13.2401 33.0739C13.4768 33.3627 13.7917 33.5876 14.1847 33.7486C14.5777 33.9096 15.018 33.9901 15.5057 33.9901C16.0265 33.9901 16.4882 33.9001 16.8906 33.7202C17.2931 33.5355 17.608 33.2798 17.8352 32.9531C18.0625 32.6264 18.1738 32.25 18.169 31.8239C18.1738 31.3835 18.0601 30.9953 17.8281 30.6591C17.5961 30.3229 17.2599 30.0601 16.8196 29.8707C16.384 29.6813 15.8584 29.5866 15.2429 29.5866H13.9574V27.5554H15.2429C15.7495 27.5554 16.1922 27.4678 16.571 27.2926C16.9545 27.1174 17.2552 26.8712 17.473 26.554C17.6908 26.232 17.7973 25.8603 17.7926 25.4389C17.7973 25.027 17.705 24.6695 17.5156 24.3665C17.331 24.0587 17.0682 23.8196 16.7273 23.6491C16.3911 23.4787 15.9957 23.3935 15.5412 23.3935C15.0961 23.3935 14.6842 23.474 14.3054 23.6349C13.9266 23.7959 13.6212 24.0256 13.3892 24.3239C13.1572 24.6174 13.0341 24.9678 13.0199 25.375H10.4844C10.5033 24.5606 10.7377 23.8456 11.1875 23.2301C11.642 22.6098 12.2481 22.1269 13.0057 21.7812C13.7633 21.4309 14.6132 21.2557 15.5554 21.2557C16.526 21.2557 17.3688 21.438 18.0838 21.8026C18.8035 22.1624 19.3598 22.6477 19.7528 23.2585C20.1458 23.8693 20.3423 24.544 20.3423 25.2827C20.3471 26.1018 20.1056 26.7884 19.6179 27.3423C19.1349 27.8963 18.5005 28.2585 17.7145 28.429V28.5426C18.7372 28.6847 19.5208 29.0634 20.0653 29.679C20.6146 30.2898 20.8868 31.0497 20.8821 31.9588C20.8821 32.7732 20.6501 33.5024 20.1861 34.1463C19.7268 34.7855 19.0923 35.2874 18.2827 35.652C17.4777 36.0166 16.5545 36.1989 15.5128 36.1989ZM23.8526 36L30.0387 23.7557V23.6562H22.8583V21.4545H32.766V23.706L26.587 36H23.8526ZM34.1705 36.1562C33.7396 36.1562 33.3703 36.0047 33.0625 35.7017C32.7547 35.3987 32.6032 35.0294 32.608 34.5938C32.6032 34.1676 32.7547 33.803 33.0625 33.5C33.3703 33.197 33.7396 33.0455 34.1705 33.0455C34.5871 33.0455 34.9493 33.197 35.2571 33.5C35.5696 33.803 35.7282 34.1676 35.733 34.5938C35.7282 34.8826 35.6525 35.1454 35.5057 35.3821C35.3636 35.6188 35.1742 35.8082 34.9375 35.9503C34.7055 36.0876 34.4498 36.1562 34.1705 36.1562ZM43.2401 36.1989C42.2931 36.1989 41.4455 36.0213 40.6974 35.6662C39.9493 35.3063 39.3551 34.8139 38.9148 34.1889C38.4792 33.5639 38.2472 32.849 38.2188 32.044H40.7756C40.8229 32.6406 41.081 33.1283 41.5497 33.5071C42.0185 33.8812 42.5819 34.0682 43.2401 34.0682C43.7562 34.0682 44.2154 33.9498 44.6179 33.7131C45.0204 33.4763 45.3376 33.1473 45.5696 32.7259C45.8016 32.3045 45.9152 31.8239 45.9105 31.2841C45.9152 30.7348 45.7992 30.2472 45.5625 29.821C45.3258 29.3949 45.0014 29.0611 44.5895 28.8196C44.1776 28.5734 43.7041 28.4503 43.169 28.4503C42.7334 28.4455 42.3049 28.526 41.8835 28.6918C41.4621 28.8575 41.1283 29.0753 40.8821 29.3452L38.5028 28.9545L39.2628 21.4545H47.7003V23.6562H41.4432L41.0241 27.5128H41.1094C41.3793 27.1955 41.7604 26.9328 42.2528 26.7244C42.7453 26.5114 43.285 26.4048 43.8722 26.4048C44.7528 26.4048 45.5388 26.6132 46.2301 27.0298C46.9214 27.4418 47.4659 28.0099 47.8636 28.7344C48.2614 29.4588 48.4602 30.2874 48.4602 31.2202C48.4602 32.1813 48.2377 33.0384 47.7926 33.7912C47.3523 34.5393 46.7391 35.1288 45.9531 35.5597C45.1719 35.9858 44.2675 36.1989 43.2401 36.1989Z" fill="black"/>
</svg>
